<svg width="183" height="40" viewBox="0 0 183 40" fill="none" xmlns="http://www.w3.org/2000/svg">
<path d="M61.6 22.04V27H58.18V12.86H63.72C65.4 12.86 66.68 13.28 67.56 14.12C68.44 14.9467 68.88 16.0667 68.88 17.48C68.88 18.36 68.68 19.1467 68.28 19.84C67.8933 20.52 67.3133 21.06 66.54 21.46C65.7667 21.8467 64.8267 22.04 63.72 22.04H61.6ZM63.34 19.3C64.7133 19.3 65.4 18.6933 65.4 17.48C65.4 16.24 64.7133 15.62 63.34 15.62H61.6V19.3H63.34ZM77.8228 27L74.7628 21.66H73.9828V27H70.5628V12.86H76.4028C77.5228 12.86 78.4695 13.0533 79.2428 13.44C80.0161 13.8267 80.5961 14.36 80.9828 15.04C81.3695 15.7067 81.5628 16.4733 81.5628 17.34C81.5628 18.3667 81.2761 19.24 80.7028 19.96C80.1428 20.68 79.3228 21.1733 78.2428 21.44L81.6028 27H77.8228ZM73.9828 19.32H76.1028C76.7828 19.32 77.2828 19.1733 77.6028 18.88C77.9228 18.5733 78.0828 18.1267 78.0828 17.54C78.0828 16.98 77.9161 16.54 77.5828 16.22C77.2628 15.9 76.7695 15.74 76.1028 15.74H73.9828V19.32ZM89.9977 12.64C91.331 12.64 92.5377 12.9533 93.6177 13.58C94.711 14.1933 95.571 15.0533 96.1977 16.16C96.8243 17.2533 97.1377 18.4933 97.1377 19.88C97.1377 21.2667 96.8177 22.5133 96.1777 23.62C95.551 24.7267 94.691 25.5933 93.5977 26.22C92.5177 26.8333 91.3177 27.14 89.9977 27.14C88.6777 27.14 87.471 26.8333 86.3777 26.22C85.2977 25.5933 84.4377 24.7267 83.7977 23.62C83.171 22.5133 82.8577 21.2667 82.8577 19.88C82.8577 18.4933 83.171 17.2533 83.7977 16.16C84.4377 15.0533 85.2977 14.1933 86.3777 13.58C87.471 12.9533 88.6777 12.64 89.9977 12.64ZM89.9977 15.82C88.8777 15.82 87.9843 16.1867 87.3177 16.92C86.6643 17.64 86.3377 18.6267 86.3377 19.88C86.3377 21.12 86.6643 22.1067 87.3177 22.84C87.9843 23.5733 88.8777 23.94 89.9977 23.94C91.1043 23.94 91.991 23.5733 92.6577 22.84C93.3243 22.1067 93.6577 21.12 93.6577 19.88C93.6577 18.64 93.3243 17.6533 92.6577 16.92C92.0043 16.1867 91.1177 15.82 89.9977 15.82ZM102.479 22.04V27H99.0589V12.86H104.599C106.279 12.86 107.559 13.28 108.439 14.12C109.319 14.9467 109.759 16.0667 109.759 17.48C109.759 18.36 109.559 19.1467 109.159 19.84C108.772 20.52 108.192 21.06 107.419 21.46C106.646 21.8467 105.706 22.04 104.599 22.04H102.479ZM104.219 19.3C105.592 19.3 106.279 18.6933 106.279 17.48C106.279 16.24 105.592 15.62 104.219 15.62H102.479V19.3H104.219ZM114.862 15.58V18.54H119.642V21.12H114.862V24.26H120.242V27H111.442V12.86H120.242V15.58H114.862ZM129.444 27L126.384 21.66H125.604V27H122.184V12.86H128.024C129.144 12.86 130.091 13.0533 130.864 13.44C131.637 13.8267 132.217 14.36 132.604 15.04C132.991 15.7067 133.184 16.4733 133.184 17.34C133.184 18.3667 132.897 19.24 132.324 19.96C131.764 20.68 130.944 21.1733 129.864 21.44L133.224 27H129.444ZM125.604 19.32H127.724C128.404 19.32 128.904 19.1733 129.224 18.88C129.544 18.5733 129.704 18.1267 129.704 17.54C129.704 16.98 129.537 16.54 129.204 16.22C128.884 15.9 128.391 15.74 127.724 15.74H125.604V19.32ZM145.059 12.86V15.58H141.219V27H137.779V15.58H133.979V12.86H145.059ZM158.72 12.86L153.82 22.3V27H150.38V22.3L145.48 12.86H149.4L152.12 18.62L154.84 12.86H158.72ZM162.975 23.58V27H159.435V23.58H162.975ZM164.442 12.7C164.442 12.18 164.629 11.7533 165.002 11.42C165.375 11.0733 165.869 10.9 166.482 10.9C167.095 10.9 167.589 11.0733 167.962 11.42C168.335 11.7533 168.522 12.18 168.522 12.7C168.522 13.2067 168.335 13.6333 167.962 13.98C167.589 14.3133 167.095 14.48 166.482 14.48C165.869 14.48 165.375 14.3133 165.002 13.98C164.629 13.6333 164.442 13.2067 164.442 12.7ZM168.182 15.84V27H164.762V15.84H168.182ZM175.763 15.7C176.87 15.7 177.857 15.9333 178.723 16.4C179.603 16.8533 180.29 17.5133 180.783 18.38C181.29 19.2467 181.543 20.26 181.543 21.42C181.543 22.58 181.29 23.5933 180.783 24.46C180.29 25.3267 179.603 25.9933 178.723 26.46C177.857 26.9133 176.87 27.14 175.763 27.14C174.657 27.14 173.663 26.9133 172.783 26.46C171.903 25.9933 171.21 25.3267 170.703 24.46C170.21 23.5933 169.963 22.58 169.963 21.42C169.963 20.26 170.21 19.2467 170.703 18.38C171.21 17.5133 171.903 16.8533 172.783 16.4C173.663 15.9333 174.657 15.7 175.763 15.7ZM175.763 18.66C175.11 18.66 174.557 18.9 174.103 19.38C173.663 19.8467 173.443 20.5267 173.443 21.42C173.443 22.3133 173.663 22.9933 174.103 23.46C174.557 23.9267 175.11 24.16 175.763 24.16C176.417 24.16 176.963 23.9267 177.403 23.46C177.843 22.9933 178.063 22.3133 178.063 21.42C178.063 20.5267 177.843 19.8467 177.403 19.38C176.963 18.9 176.417 18.66 175.763 18.66Z" fill="white"/>
<circle cx="20" cy="20" r="20" fill="#FFC700"/>
<circle cx="20" cy="20" r="20" fill="white"/>
</svg>
