<svg width="183" height="40" viewBox="0 0 183 40" fill="none" xmlns="http://www.w3.org/2000/svg">
<path d="M66.94 18.48C66.94 19.2933 66.7533 20.04 66.38 20.72C66.0067 21.3867 65.4333 21.9267 64.66 22.34C63.8867 22.7533 62.9267 22.96 61.78 22.96H59.66V28H56.24V13.96H61.78C62.9 13.96 63.8467 14.1533 64.62 14.54C65.3933 14.9267 65.9733 15.46 66.36 16.14C66.7467 16.82 66.94 17.6 66.94 18.48ZM61.52 20.24C62.1733 20.24 62.66 20.0867 62.98 19.78C63.3 19.4733 63.46 19.04 63.46 18.48C63.46 17.92 63.3 17.4867 62.98 17.18C62.66 16.8733 62.1733 16.72 61.52 16.72H59.66V20.24H61.52ZM75.8805 28L72.9605 22.7H72.1405V28H68.7205V13.96H74.4605C75.5671 13.96 76.5071 14.1533 77.2805 14.54C78.0671 14.9267 78.6538 15.46 79.0405 16.14C79.4271 16.8067 79.6205 17.5533 79.6205 18.38C79.6205 19.3133 79.3538 20.1467 78.8205 20.88C78.3005 21.6133 77.5271 22.1333 76.5005 22.44L79.7405 28H75.8805ZM72.1405 20.28H74.2605C74.8871 20.28 75.3538 20.1267 75.6605 19.82C75.9805 19.5133 76.1405 19.08 76.1405 18.52C76.1405 17.9867 75.9805 17.5667 75.6605 17.26C75.3538 16.9533 74.8871 16.8 74.2605 16.8H72.1405V20.28ZM88.4073 28.14C87.0873 28.14 85.874 27.8333 84.7673 27.22C83.674 26.6067 82.8007 25.7533 82.1473 24.66C81.5073 23.5533 81.1873 22.3133 81.1873 20.94C81.1873 19.5667 81.5073 18.3333 82.1473 17.24C82.8007 16.1467 83.674 15.2933 84.7673 14.68C85.874 14.0667 87.0873 13.76 88.4073 13.76C89.7273 13.76 90.934 14.0667 92.0273 14.68C93.134 15.2933 94.0007 16.1467 94.6273 17.24C95.2673 18.3333 95.5873 19.5667 95.5873 20.94C95.5873 22.3133 95.2673 23.5533 94.6273 24.66C93.9873 25.7533 93.1207 26.6067 92.0273 27.22C90.934 27.8333 89.7273 28.14 88.4073 28.14ZM88.4073 25.02C89.5273 25.02 90.4207 24.6467 91.0873 23.9C91.7673 23.1533 92.1073 22.1667 92.1073 20.94C92.1073 19.7 91.7673 18.7133 91.0873 17.98C90.4207 17.2333 89.5273 16.86 88.4073 16.86C87.274 16.86 86.3673 17.2267 85.6873 17.96C85.0207 18.6933 84.6873 19.6867 84.6873 20.94C84.6873 22.18 85.0207 23.1733 85.6873 23.92C86.3673 24.6533 87.274 25.02 88.4073 25.02ZM108.19 18.48C108.19 19.2933 108.003 20.04 107.63 20.72C107.257 21.3867 106.683 21.9267 105.91 22.34C105.137 22.7533 104.177 22.96 103.03 22.96H100.91V28H97.49V13.96H103.03C104.15 13.96 105.097 14.1533 105.87 14.54C106.643 14.9267 107.223 15.46 107.61 16.14C107.997 16.82 108.19 17.6 108.19 18.48ZM102.77 20.24C103.423 20.24 103.91 20.0867 104.23 19.78C104.55 19.4733 104.71 19.04 104.71 18.48C104.71 17.92 104.55 17.4867 104.23 17.18C103.91 16.8733 103.423 16.72 102.77 16.72H100.91V20.24H102.77ZM113.39 16.7V19.54H117.97V22.18H113.39V25.26H118.57V28H109.97V13.96H118.57V16.7H113.39ZM127.951 28L125.031 22.7H124.211V28H120.791V13.96H126.531C127.637 13.96 128.577 14.1533 129.351 14.54C130.137 14.9267 130.724 15.46 131.111 16.14C131.497 16.8067 131.691 17.5533 131.691 18.38C131.691 19.3133 131.424 20.1467 130.891 20.88C130.371 21.6133 129.597 22.1333 128.571 22.44L131.811 28H127.951ZM124.211 20.28H126.331C126.957 20.28 127.424 20.1267 127.731 19.82C128.051 19.5133 128.211 19.08 128.211 18.52C128.211 17.9867 128.051 17.5667 127.731 17.26C127.424 16.9533 126.957 16.8 126.331 16.8H124.211V20.28ZM143.938 13.96V16.7H140.218V28H136.798V16.7H133.078V13.96H143.938ZM157.694 13.96L152.834 23.36V28H149.414V23.36L144.554 13.96H148.434L151.154 19.84L153.854 13.96H157.694ZM160.672 28.16C160.072 28.16 159.579 27.9867 159.192 27.64C158.819 27.28 158.632 26.84 158.632 26.32C158.632 25.7867 158.819 25.34 159.192 24.98C159.579 24.62 160.072 24.44 160.672 24.44C161.259 24.44 161.739 24.62 162.112 24.98C162.499 25.34 162.692 25.7867 162.692 26.32C162.692 26.84 162.499 27.28 162.112 27.64C161.739 27.9867 161.259 28.16 160.672 28.16ZM166.437 15.68C165.837 15.68 165.343 15.5067 164.957 15.16C164.583 14.8 164.397 14.36 164.397 13.84C164.397 13.3067 164.583 12.8667 164.957 12.52C165.343 12.16 165.837 11.98 166.437 11.98C167.023 11.98 167.503 12.16 167.877 12.52C168.263 12.8667 168.457 13.3067 168.457 13.84C168.457 14.36 168.263 14.8 167.877 15.16C167.503 15.5067 167.023 15.68 166.437 15.68ZM168.137 16.84V28H164.717V16.84H168.137ZM175.695 28.16C174.602 28.16 173.615 27.9267 172.735 27.46C171.868 26.9933 171.182 26.3267 170.675 25.46C170.182 24.5933 169.935 23.58 169.935 22.42C169.935 21.2733 170.188 20.2667 170.695 19.4C171.202 18.52 171.895 17.8467 172.775 17.38C173.655 16.9133 174.642 16.68 175.735 16.68C176.828 16.68 177.815 16.9133 178.695 17.38C179.575 17.8467 180.268 18.52 180.775 19.4C181.282 20.2667 181.535 21.2733 181.535 22.42C181.535 23.5667 181.275 24.58 180.755 25.46C180.248 26.3267 179.548 26.9933 178.655 27.46C177.775 27.9267 176.788 28.16 175.695 28.16ZM175.695 25.2C176.348 25.2 176.902 24.96 177.355 24.48C177.822 24 178.055 23.3133 178.055 22.42C178.055 21.5267 177.828 20.84 177.375 20.36C176.935 19.88 176.388 19.64 175.735 19.64C175.068 19.64 174.515 19.88 174.075 20.36C173.635 20.8267 173.415 21.5133 173.415 22.42C173.415 23.3133 173.628 24 174.055 24.48C174.495 24.96 175.042 25.2 175.695 25.2Z" fill="black"/>
<circle cx="20" cy="20" r="20" fill="#FE8934"/>
</svg>
